<svg width="295" height="171" viewBox="0 0 295 171" fill="none" xmlns="http://www.w3.org/2000/svg">
<path d="M59.4057 39.8699H33.9883V65.2873H59.4057V39.8699Z" fill="white" stroke="#1A1A1A" stroke-width="0.586733" stroke-linecap="round" stroke-linejoin="round"/>
<path d="M46.6973 44.2126V60.9447" stroke="#1A1A1A" stroke-width="0.586733" stroke-linecap="round" stroke-linejoin="round"/>
<path d="M38.3613 52.5786H54.8243" stroke="#1A1A1A" stroke-width="0.586733" stroke-linecap="round" stroke-linejoin="round"/>
<path d="M261.151 12.2234C261.151 10.7495 260.861 9.29005 260.297 7.92837C259.733 6.56668 258.906 5.32942 257.864 4.28723C256.822 3.24504 255.585 2.41833 254.223 1.85431C252.861 1.29028 251.402 0.999989 249.928 1H94.9588C93.4849 0.999989 92.0254 1.29028 90.6637 1.85431C89.3021 2.41833 88.0648 3.24504 87.0226 4.28723C85.9804 5.32942 85.1537 6.56668 84.5897 7.92837C84.0256 9.29005 83.7353 10.7495 83.7354 12.2234V13.5184H261.151V12.2234Z" fill="#1C0311" stroke="#1A1A1A" stroke-width="0.293366" stroke-linecap="round" stroke-linejoin="round"/>
<path d="M83.7354 13.5186V134.737C83.7353 136.211 84.0256 137.67 84.5897 139.032C85.1537 140.394 85.9804 141.631 87.0226 142.673C88.0648 143.715 89.302 144.542 90.6637 145.106C92.0254 145.67 93.4849 145.96 94.9588 145.96H249.928C251.402 145.96 252.861 145.67 254.223 145.106C255.585 144.542 256.822 143.715 257.864 142.673C258.906 141.631 259.733 140.394 260.297 139.032C260.861 137.67 261.151 136.211 261.151 134.737V13.5186H83.7354Z" fill="white" stroke="#1A1A1A" stroke-width="0.586733" stroke-linecap="round" stroke-linejoin="round"/>
<path d="M164.566 70.0337V71.794H162.806" stroke="#1A1A1A" stroke-width="0.586733" stroke-linecap="round" stroke-linejoin="round"/>
<path d="M159.179 71.7937H102.958" stroke="#1A1A1A" stroke-width="0.586733" stroke-linecap="round" stroke-linejoin="round" stroke-dasharray="3.63 3.63"/>
<path d="M101.143 71.794H99.3828V70.0337" stroke="#1A1A1A" stroke-width="0.586733" stroke-linecap="round" stroke-linejoin="round"/>
<path d="M99.3828 66.6852V28.1768" stroke="#1A1A1A" stroke-width="0.586733" stroke-linecap="round" stroke-linejoin="round" stroke-dasharray="3.35 3.35"/>
<path d="M99.3828 26.502V24.7417H101.143" stroke="#1A1A1A" stroke-width="0.586733" stroke-linecap="round" stroke-linejoin="round"/>
<path d="M104.771 24.7417H160.992" stroke="#1A1A1A" stroke-width="0.586733" stroke-linecap="round" stroke-linejoin="round" stroke-dasharray="3.63 3.63"/>
<path d="M162.806 24.7417H164.566V26.502" stroke="#1A1A1A" stroke-width="0.586733" stroke-linecap="round" stroke-linejoin="round"/>
<path d="M164.566 29.8508V68.3592" stroke="#1A1A1A" stroke-width="0.586733" stroke-linecap="round" stroke-linejoin="round" stroke-dasharray="3.35 3.35"/>
<path d="M245.503 131.396V133.156H243.742" stroke="#1A1A1A" stroke-width="0.586733" stroke-linecap="round" stroke-linejoin="round"/>
<path d="M240.117 133.156H183.896" stroke="#1A1A1A" stroke-width="0.586733" stroke-linecap="round" stroke-linejoin="round" stroke-dasharray="3.63 3.63"/>
<path d="M182.082 133.156H180.321V131.396" stroke="#1A1A1A" stroke-width="0.586733" stroke-linecap="round" stroke-linejoin="round"/>
<path d="M180.321 127.778V28.3105" stroke="#1A1A1A" stroke-width="0.586733" stroke-linecap="round" stroke-linejoin="round" stroke-dasharray="3.62 3.62"/>
<path d="M180.321 26.502V24.7417H182.082" stroke="#1A1A1A" stroke-width="0.586733" stroke-linecap="round" stroke-linejoin="round"/>
<path d="M185.709 24.7417H241.93" stroke="#1A1A1A" stroke-width="0.586733" stroke-linecap="round" stroke-linejoin="round" stroke-dasharray="3.63 3.63"/>
<path d="M243.742 24.7417H245.503V26.502" stroke="#1A1A1A" stroke-width="0.586733" stroke-linecap="round" stroke-linejoin="round"/>
<path d="M245.504 30.1189V129.587" stroke="#1A1A1A" stroke-width="0.586733" stroke-linecap="round" stroke-linejoin="round" stroke-dasharray="3.62 3.62"/>
<path d="M242.334 27.136H183.491V130.762H242.334V27.136Z" fill="white" stroke="#1A1A1A" stroke-width="0.586733" stroke-linecap="round" stroke-linejoin="round"/>
<path d="M164.566 131.396V133.156H162.806" stroke="#1A1A1A" stroke-width="0.586733" stroke-linecap="round" stroke-linejoin="round"/>
<path d="M159.179 133.156H102.958" stroke="#1A1A1A" stroke-width="0.586733" stroke-linecap="round" stroke-linejoin="round" stroke-dasharray="3.63 3.63"/>
<path d="M101.143 133.156H99.3828V131.396" stroke="#1A1A1A" stroke-width="0.586733" stroke-linecap="round" stroke-linejoin="round"/>
<path d="M99.3828 127.81V86.5708" stroke="#1A1A1A" stroke-width="0.586733" stroke-linecap="round" stroke-linejoin="round" stroke-dasharray="3.59 3.59"/>
<path d="M99.3828 84.7774V83.0171H101.143" stroke="#1A1A1A" stroke-width="0.586733" stroke-linecap="round" stroke-linejoin="round"/>
<path d="M104.771 83.0171H160.992" stroke="#1A1A1A" stroke-width="0.586733" stroke-linecap="round" stroke-linejoin="round" stroke-dasharray="3.63 3.63"/>
<path d="M162.806 83.0171H164.566V84.7774" stroke="#1A1A1A" stroke-width="0.586733" stroke-linecap="round" stroke-linejoin="round"/>
<path d="M164.566 88.3638V129.603" stroke="#1A1A1A" stroke-width="0.586733" stroke-linecap="round" stroke-linejoin="round" stroke-dasharray="3.59 3.59"/>
<path d="M161.351 85.489H102.596V130.684H161.351V85.489Z" fill="white" stroke="#1A1A1A" stroke-width="0.586733" stroke-linecap="round" stroke-linejoin="round"/>
<path d="M146.327 69.4913C137.983 73.3758 130.499 77.8386 130.499 77.8386C130.499 77.8386 123.017 73.3758 114.673 69.4913C106.326 65.6068 106.471 61.6496 106.471 61.6496V29.7771C106.471 21.4329 118.987 19.1318 118.987 19.1318H142.01C142.01 19.1318 154.529 21.4329 154.529 29.7771V61.6496C154.529 61.6496 154.672 65.6068 146.327 69.4913Z" fill="white" stroke="#1A1A1A" stroke-width="0.586733" stroke-linecap="round" stroke-linejoin="round"/>
<path d="M130.5 71.895C127.533 70.2153 122.403 67.412 116.846 64.8251C113.061 63.0635 111.911 61.5757 111.619 61.0954V29.7774C111.619 26.7207 117.406 24.7855 119.533 24.2791H141.47C143.572 24.7781 149.384 26.7151 149.384 29.7774V61.0936C149.091 61.5744 147.942 63.0631 144.156 64.8253C138.6 67.4121 133.468 70.2154 130.5 71.895Z" fill="white" stroke="#1A1A1A" stroke-width="0.586733" stroke-linecap="round" stroke-linejoin="round"/>
<path d="M139.35 43.6273V40.4168C139.351 39.1182 139.096 37.8321 138.6 36.6321C138.103 35.4321 137.376 34.3416 136.458 33.423C135.54 32.5044 134.45 31.7757 133.25 31.2785C132.051 30.7813 130.765 30.5254 129.466 30.5254C128.168 30.5254 126.882 30.7813 125.682 31.2785C124.483 31.7757 123.393 32.5044 122.475 33.423C121.557 34.3416 120.829 35.4321 120.333 36.6321C119.837 37.8321 119.582 39.1182 119.583 40.4168V43.6273C119.583 44.1091 119.774 44.5712 120.115 44.9119C120.456 45.2525 120.918 45.4439 121.4 45.4439C121.881 45.4439 122.343 45.2525 122.684 44.9119C123.025 44.5712 123.216 44.1091 123.216 43.6273L123.216 40.4168C123.217 38.7596 123.876 37.1705 125.048 35.999C126.22 34.8275 127.809 34.1693 129.466 34.1693C131.124 34.1693 132.713 34.8275 133.885 35.999C135.057 37.1705 135.716 38.7596 135.717 40.4168V43.6273C135.717 44.1091 135.908 44.5712 136.249 44.9119C136.589 45.2525 137.051 45.4439 137.533 45.4439C138.015 45.4439 138.477 45.2525 138.818 44.9119C139.158 44.5712 139.35 44.1091 139.35 43.6273H139.35Z" fill="#1C0311" stroke="#1A1A1A" stroke-width="0.293366" stroke-linecap="round" stroke-linejoin="round"/>
<path d="M100.57 10.1373C102.477 10.1373 104.023 8.59114 104.023 6.68388C104.023 4.77661 102.477 3.23047 100.57 3.23047C98.6624 3.23047 97.1162 4.77661 97.1162 6.68388C97.1162 8.59114 98.6624 10.1373 100.57 10.1373Z" fill="white" stroke="#1A1A1A" stroke-width="0.586733" stroke-linecap="round" stroke-linejoin="round"/>
<path d="M113.521 10.1373C115.428 10.1373 116.974 8.59114 116.974 6.68388C116.974 4.77661 115.428 3.23047 113.521 3.23047C111.614 3.23047 110.067 4.77661 110.067 6.68388C110.067 8.59114 111.614 10.1373 113.521 10.1373Z" fill="white" stroke="#1A1A1A" stroke-width="0.586733" stroke-linecap="round" stroke-linejoin="round"/>
<path d="M126.471 10.1373C128.378 10.1373 129.924 8.59114 129.924 6.68388C129.924 4.77661 128.378 3.23047 126.471 3.23047C124.564 3.23047 123.018 4.77661 123.018 6.68388C123.018 8.59114 124.564 10.1373 126.471 10.1373Z" fill="white" stroke="#1A1A1A" stroke-width="0.586733" stroke-linecap="round" stroke-linejoin="round"/>
<path d="M141.752 42.3027H117.177V59.7668H141.752V42.3027Z" fill="#1C0311" stroke="#1A1A1A" stroke-width="0.293366" stroke-linecap="round" stroke-linejoin="round"/>
<path d="M38.3735 108.329V101.727H31.5626C31.2963 100.763 30.9121 99.8344 30.4185 98.9639L35.2339 94.1485L30.5649 89.4794L25.7494 94.2949C24.8789 93.8013 23.9508 93.417 22.9862 93.1507V86.3428H16.3873V93.1507C15.4227 93.417 14.4946 93.8013 13.6241 94.2949L8.80868 89.4794L4.1396 94.1485L8.95506 98.9639C8.46148 99.8344 8.07721 100.763 7.81095 101.727H1V108.329H7.81095C8.07719 109.294 8.46146 110.222 8.95505 111.092L4.1396 115.908L8.80867 120.577L13.6241 115.761C14.4946 116.255 15.4227 116.639 16.3873 116.905V123.713H22.9862V116.905C23.9508 116.639 24.8789 116.255 25.7494 115.761L30.5648 120.577L35.2339 115.908L30.4185 111.092C30.9121 110.222 31.2963 109.294 31.5626 108.329H38.3735ZM25.4029 108.329C24.8234 109.333 23.9899 110.166 22.9862 110.746C22.4874 111.036 21.9519 111.258 21.394 111.406C20.2744 111.705 19.0961 111.705 17.9766 111.406C17.4196 111.258 16.8851 111.036 16.3873 110.746C14.872 109.868 13.765 108.427 13.3075 106.737C13.1605 106.179 13.0862 105.605 13.0864 105.028C13.0858 104.451 13.1611 103.877 13.3105 103.319C13.4582 102.761 13.6803 102.226 13.9707 101.727C14.551 100.724 15.3843 99.8908 16.3873 99.3105C16.8851 99.0201 17.4196 98.798 17.9766 98.6503C19.0961 98.3516 20.2744 98.3516 21.394 98.6503C21.9519 98.798 22.4874 99.0201 22.9862 99.3105C23.9892 99.8908 24.8225 100.724 25.4029 101.727C25.6932 102.226 25.9153 102.761 26.0631 103.319C26.2125 103.877 26.2878 104.451 26.2871 105.028C26.2873 105.605 26.213 106.179 26.066 106.737C25.916 107.294 25.693 107.83 25.4029 108.329Z" fill="white" stroke="#1A1A1A" stroke-width="0.586733" stroke-linecap="round" stroke-linejoin="round"/>
<path d="M200.147 170.024C210.585 170.024 219.046 161.563 219.046 151.125C219.046 140.688 210.585 132.227 200.147 132.227C189.71 132.227 181.249 140.688 181.249 151.125C181.249 161.563 189.71 170.024 200.147 170.024Z" fill="white" stroke="#1A1A1A" stroke-width="0.586733" stroke-linecap="round" stroke-linejoin="round"/>
<path d="M187.748 150.686L198.694 160.307C198.925 160.51 199.196 160.663 199.489 160.755C199.783 160.846 200.092 160.876 200.398 160.841C200.703 160.805 200.998 160.707 201.263 160.551C201.528 160.395 201.758 160.185 201.937 159.935L219.261 135.708C219.6 135.233 219.737 134.643 219.641 134.068C219.545 133.492 219.225 132.978 218.75 132.639C218.276 132.3 217.686 132.163 217.111 132.258C216.535 132.354 216.021 132.674 215.682 133.148L199.772 155.396L190.654 147.381C190.215 146.996 189.642 146.801 189.06 146.839C188.478 146.877 187.935 147.144 187.55 147.582C187.165 148.02 186.969 148.593 187.006 149.175C187.044 149.758 187.311 150.301 187.749 150.686L187.748 150.686Z" fill="#1A1A1A"/>
<path d="M272.421 59.523C284.339 59.523 294 49.862 294 37.9446C294 26.0272 284.339 16.3662 272.421 16.3662C260.504 16.3662 250.843 26.0272 250.843 37.9446C250.843 49.862 260.504 59.523 272.421 59.523Z" fill="#1C0311" stroke="#1A1A1A" stroke-width="0.293366" stroke-linecap="round" stroke-linejoin="round"/>
<path d="M274.43 34.1159C275.188 33.6746 275.779 32.9961 276.112 32.1852C276.445 31.3743 276.502 30.4763 276.273 29.6299C276.045 28.7836 275.544 28.0362 274.848 27.5032C274.152 26.9702 273.299 26.6814 272.423 26.6814C271.546 26.6814 270.694 26.9702 269.998 27.5032C269.302 28.0362 268.801 28.7836 268.572 29.6299C268.344 30.4763 268.4 31.3743 268.733 32.1852C269.066 32.9961 269.657 33.6746 270.415 34.1159C268.676 34.5622 267.135 35.5743 266.034 36.9929C264.934 38.4114 264.336 40.1557 264.336 41.9511V45.857H280.509V41.9511C280.509 40.1557 279.912 38.4114 278.811 36.9929C277.711 35.5743 276.169 34.5622 274.43 34.1159Z" fill="white" stroke="#1A1A1A" stroke-width="0.586733" stroke-linecap="round" stroke-linejoin="round"/>
</svg>
