<svg width="155" height="145" viewBox="0 0 155 145" fill="none" xmlns="http://www.w3.org/2000/svg">
<path d="M49.3004 122.67C47.9788 121.751 46.634 121.862 45.8914 122.93C45.0004 124.21 45.8915 125.293 46.6148 126.162C47.1326 126.766 47.5773 127.282 47.2517 127.75C46.9604 128.169 46.4001 128.169 45.8501 127.786C45.2509 127.369 45.0807 126.861 45.2835 126.149L44.0451 125.653C43.5171 126.955 44.2158 128.086 45.25 128.806C46.4648 129.651 47.7761 129.553 48.4958 128.518C49.3183 127.336 48.5093 126.311 47.8163 125.451C47.2828 124.799 46.82 124.221 47.1798 123.704C47.4882 123.261 48.0133 123.224 48.6043 123.636C49.2363 124.075 49.4682 124.687 49.1551 125.505L50.5002 126.076C51.0989 124.848 50.548 123.538 49.3004 122.67Z" fill="#DCDCE5"/>
<path d="M36.655 111.8C35.6666 110.542 34.2181 110.091 32.8336 110.53L33.2963 111.896C34.1562 111.614 35.0222 111.875 35.6091 112.622C36.3936 113.621 36.2166 114.917 35.1078 115.788C33.999 116.659 32.6977 116.524 31.9131 115.526C31.3263 114.778 31.2859 113.869 31.7628 113.1L30.5374 112.333C29.7908 113.569 29.8867 115.083 30.8751 116.341C32.1848 118.008 34.2831 118.267 35.9974 116.92C37.7117 115.574 37.9646 113.468 36.655 111.8Z" fill="#DCDCE5"/>
<path d="M27.2417 96.184L25.5299 98.9119C25.4536 98.8358 25.3774 98.7597 25.2919 98.6876C24.6532 98.1894 23.7748 98.1969 22.9663 98.5445C22.2589 98.8486 21.8432 99.2994 21.6967 99.8196C21.5345 100.379 21.6193 101.007 22.0142 101.925L22.9384 104.075L29.4336 101.283L28.861 99.9507L26.4815 100.974L26.2248 100.376L27.9368 97.8009L27.2417 96.184ZM23.1996 101.644C23.0416 101.277 22.8915 100.852 22.9646 100.515C23.03 100.237 23.2359 100.007 23.6125 99.845C23.9892 99.6831 24.307 99.688 24.5619 99.8505C24.8431 100.024 25.0471 100.447 25.1932 100.787L25.4618 101.412L23.4682 102.269L23.1996 101.644Z" fill="#DCDCE5"/>
<path d="M24.8249 87.18C24.5356 85.0799 22.845 83.7986 20.6854 84.096C18.5258 84.3935 17.2544 86.0827 17.5436 88.1829C17.8329 90.2831 19.5136 91.5658 21.6732 91.2683C23.8329 90.9709 25.1142 89.2802 24.8249 87.18ZM23.5073 87.3615C23.6806 88.6196 22.8736 89.6494 21.4768 89.8418C20.08 90.0342 19.0246 89.2609 18.8513 88.0028C18.678 86.7447 19.4851 85.7149 20.8819 85.5226C22.2787 85.3302 23.3341 86.1034 23.5073 87.3615Z" fill="#DCDCE5"/>
<path d="M24.3431 69.5922L23.0813 69.4481L22.8238 71.7035L17.0612 71.0454L16.8978 72.4761L23.9222 73.2783L24.3431 69.5922Z" fill="#DCDCE5"/>
<path d="M26.661 59.9738L25.4474 59.5993L24.7781 61.7684L19.2359 60.0581L18.8113 61.434L25.567 63.5188L26.661 59.9738Z" fill="#DCDCE5"/>
<path d="M35.0013 44.318C35.8064 43.4282 36.1727 42.6807 36.2497 41.9547C36.355 40.9441 35.8954 39.9617 34.9463 39.1028C33.9972 38.244 32.9813 37.8911 31.9862 38.0966C31.2715 38.2455 30.5642 38.6844 29.759 39.5742L28.3231 41.1609L33.5654 45.9047L35.0013 44.318ZM30.2303 40.9312L30.6933 40.4196C31.1495 39.9154 31.6097 39.6305 32.0648 39.5299C32.7015 39.3777 33.3505 39.6144 33.9733 40.178C34.5962 40.7416 34.8963 41.3638 34.8157 42.0192C34.7609 42.4821 34.5158 42.9616 34.0596 43.4658L33.5966 43.9774L30.2303 40.9312Z" fill="#DCDCE5"/>
<path d="M48.3925 32.3905C50.2326 31.3376 50.7895 29.2908 49.7069 27.3986C48.6242 25.5065 46.5823 24.9582 44.7422 26.0111C42.9021 27.0639 42.3402 29.1022 43.4229 30.9943C44.5055 32.8864 46.5524 33.4434 48.3925 32.3905ZM47.732 31.2361C46.6297 31.8669 45.373 31.5029 44.6727 30.2791C43.9725 29.0553 44.2954 27.7875 45.3978 27.1568C46.5001 26.526 47.7567 26.89 48.457 28.1138C49.1573 29.3376 48.8343 30.6054 47.732 31.2361Z" fill="#DCDCE5"/>
<path d="M66.6331 23.3407L64.1458 18.152L62.9132 18.3599L62.2533 24.0691L59.9451 18.8604L58.4659 19.1098L61.4559 25.7754L63.359 25.4545L63.9602 20.8403L66.051 25.0006L67.9542 24.6797L68.593 17.4021L67.1138 17.6515L66.6331 23.3407Z" fill="#DCDCE5"/>
<path d="M86.3269 22.6064L84.0901 17.0885L82.3968 16.7868L81.1566 23.7471L82.5742 23.9997L83.4636 19.0084L85.6852 24.5541L87.3983 24.8593L88.6385 17.8989L87.211 17.6446L86.3269 22.6064Z" fill="#DCDCE5"/>
<path d="M113.162 28.6841L109.748 26.2375L105.63 31.9842L106.801 32.823L108.496 30.4577L110.438 31.8499L111.166 30.8339L109.224 29.4417L110.185 28.1005L112.428 29.7082L113.162 28.6841Z" fill="#DCDCE5"/>
<path d="M116.855 41.6711C118.188 43.3197 120.298 43.5432 121.993 42.1727C123.688 40.8022 123.904 38.699 122.571 37.0503C121.239 35.4017 119.137 35.1719 117.442 36.5424C115.746 37.9129 115.523 40.0224 116.855 41.6711ZM117.89 40.8349C117.091 39.8473 117.25 38.5486 118.347 37.6622C119.443 36.7758 120.746 36.8925 121.545 37.8802C122.343 38.8678 122.184 40.1665 121.088 41.0529C119.991 41.9393 118.688 41.8226 117.89 40.8349Z" fill="#DCDCE5"/>
<path d="M127.016 58.0515L128.715 55.3157C128.792 55.3914 128.868 55.4671 128.954 55.5389C129.595 56.0341 130.474 56.0225 131.28 55.6711C131.986 55.3637 132.4 54.9109 132.544 54.3901C132.704 53.8298 132.616 53.2026 132.217 52.2858L131.282 50.1404L124.8 52.9631L125.379 54.2925L127.754 53.2584L128.013 53.8544L126.314 56.4379L127.016 58.0515ZM131.033 52.5724C131.192 52.9391 131.344 53.3637 131.273 53.7002C131.209 53.979 131.004 54.2099 130.628 54.3736C130.252 54.5373 129.934 54.5339 129.679 54.3726C129.397 54.2009 129.191 53.778 129.043 53.4387L128.772 52.8153L130.761 51.9489L131.033 52.5724Z" fill="#DCDCE5"/>
<path d="M137.453 81.5039L137.625 79.3809L133.352 77.5183L137.87 76.3709L138.043 74.2479L131.043 73.0964L130.925 74.5516L136.43 75.4511L130.741 76.8142L130.661 77.7909L136.055 80.0558L130.477 80.0535L130.359 81.5086L137.453 81.5039Z" fill="#DCDCE5"/>
<path d="M126.599 97.1463C125.708 99.0699 126.438 101.061 128.416 101.978C130.394 102.894 132.377 102.16 133.268 100.236C134.159 98.3125 133.438 96.3251 131.46 95.4087C129.482 94.4923 127.49 95.2227 126.599 97.1463ZM127.806 97.7054C128.34 96.5531 129.575 96.1225 130.854 96.7153C132.134 97.308 132.604 98.5288 132.07 99.6812C131.536 100.834 130.301 101.264 129.022 100.671C127.742 100.079 127.272 98.8578 127.806 97.7054Z" fill="#DCDCE5"/>
<path d="M116.386 113.494L119.591 113.811C119.556 113.913 119.522 114.015 119.496 114.124C119.334 114.918 119.732 115.701 120.404 116.27C120.991 116.767 121.58 116.939 122.111 116.838C122.684 116.734 123.208 116.378 123.855 115.616L125.368 113.83L119.974 109.26L119.036 110.366L121.012 112.04L120.592 112.536L117.524 112.151L116.386 113.494ZM123.075 114.68C122.816 114.985 122.503 115.309 122.169 115.393C121.891 115.459 121.593 115.377 121.28 115.112C120.967 114.847 120.83 114.56 120.862 114.259C120.892 113.93 121.18 113.559 121.42 113.277L121.859 112.758L123.515 114.161L123.075 114.68Z" fill="#DCDCE5"/>
<path d="M112.789 126.068L116.17 123.715L112.132 117.911L108.75 120.265L109.476 121.307L111.676 119.776L112.612 121.122L110.65 122.488L111.364 123.514L113.326 122.149L114.269 123.503L112.069 125.034L112.789 126.068Z" fill="#DCDCE5"/>
<path d="M77.0565 45.8123V118.125M77.0565 118.125C78.8268 113.218 80.5319 110.784 85.7106 107.372M77.0565 118.125C75.1305 113.276 73.497 110.806 68.4023 107.372" stroke="#DCDCE5" stroke-width="2" stroke-linecap="round" stroke-linejoin="round"/>
</svg>
